<svg viewBox="0 0 48 48" fill="none" xmlns="http://www.w3.org/2000/svg">
<path d="M9 45C8.2 45 7.5 44.7 6.9 44.1C6.3 43.5 6 42.8 6 42V11C6 10.2 6.3 9.5 6.9 8.9C7.5 8.3 8.2 8 9 8H12.25V5H15.5V8H32.5V5H35.75V8H39C39.8 8 40.5 8.3 41.1 8.9C41.7 9.5 42 10.2 42 11V42C42 42.8 41.7 43.5 41.1 44.1C40.5 44.7 39.8 45 39 45H9ZM9 42H39V20.5H9V42ZM9 17.5H39V11H9V17.5ZM24 29C23.4333 29 22.9583 28.8083 22.575 28.425C22.1917 28.0417 22 27.5667 22 27C22 26.4333 22.1917 25.9583 22.575 25.575C22.9583 25.1917 23.4333 25 24 25C24.5667 25 25.0417 25.1917 25.425 25.575C25.8083 25.9583 26 26.4333 26 27C26 27.5667 25.8083 28.0417 25.425 28.425C25.0417 28.8083 24.5667 29 24 29ZM14.575 28.425C14.1917 28.0417 14 27.5667 14 27C14 26.4333 14.1917 25.9583 14.575 25.575C14.9583 25.1917 15.4333 25 16 25C16.5667 25 17.0417 25.1917 17.425 25.575C17.8083 25.9583 18 26.4333 18 27C18 27.5667 17.8083 28.0417 17.425 28.425C17.0417 28.8083 16.5667 29 16 29C15.4333 29 14.9583 28.8083 14.575 28.425ZM32 29C31.4333 29 30.9583 28.8083 30.575 28.425C30.1917 28.0417 30 27.5667 30 27C30 26.4333 30.1917 25.9583 30.575 25.575C30.9583 25.1917 31.4333 25 32 25C32.5667 25 33.0417 25.1917 33.425 25.575C33.8083 25.9583 34 26.4333 34 27C34 27.5667 33.8083 28.0417 33.425 28.425C33.0417 28.8083 32.5667 29 32 29ZM24 37C23.4333 37 22.9583 36.8083 22.575 36.425C22.1917 36.0417 22 35.5667 22 35C22 34.4333 22.1917 33.9583 22.575 33.575C22.9583 33.1917 23.4333 33 24 33C24.5667 33 25.0417 33.1917 25.425 33.575C25.8083 33.9583 26 34.4333 26 35C26 35.5667 25.8083 36.0417 25.425 36.425C25.0417 36.8083 24.5667 37 24 37ZM14.575 36.425C14.1917 36.0417 14 35.5667 14 35C14 34.4333 14.1917 33.9583 14.575 33.575C14.9583 33.1917 15.4333 33 16 33C16.5667 33 17.0417 33.1917 17.425 33.575C17.8083 33.9583 18 34.4333 18 35C18 35.5667 17.8083 36.0417 17.425 36.425C17.0417 36.8083 16.5667 37 16 37C15.4333 37 14.9583 36.8083 14.575 36.425ZM32 37C31.4333 37 30.9583 36.8083 30.575 36.425C30.1917 36.0417 30 35.5667 30 35C30 34.4333 30.1917 33.9583 30.575 33.575C30.9583 33.1917 31.4333 33 32 33C32.5667 33 33.0417 33.1917 33.425 33.575C33.8083 33.9583 34 34.4333 34 35C34 35.5667 33.8083 36.0417 33.425 36.425C33.0417 36.8083 32.5667 37 32 37Z" fill="black"/>
</svg>
