<svg viewBox="0 0 48 48" fill="none" xmlns="http://www.w3.org/2000/svg">
<path d="M9 37.15C11 35.2833 13.2667 33.775 15.8 32.625C18.3333 31.475 21.0667 30.9 24 30.9C26.9333 30.9 29.6667 31.475 32.2 32.625C34.7333 33.775 37 35.2833 39 37.15V9H9V37.15ZM29 24.95C30.3333 23.6167 31 21.9833 31 20.05C31 18.1167 30.3333 16.4833 29 15.15C27.6667 13.8167 26.0333 13.15 24.1 13.15C22.1667 13.15 20.5333 13.8167 19.2 15.15C17.8667 16.4833 17.2 18.1167 17.2 20.05C17.2 21.9833 17.8667 23.6167 19.2 24.95C20.5333 26.2833 22.1667 26.95 24.1 26.95C26.0333 26.95 27.6667 26.2833 29 24.95ZM9 42C8.2 42 7.5 41.7 6.9 41.1C6.3 40.5 6 39.8 6 39V9C6 8.2 6.3 7.5 6.9 6.9C7.5 6.3 8.2 6 9 6H39C39.8 6 40.5 6.3 41.1 6.9C41.7 7.5 42 8.2 42 9V39C42 39.8 41.7 40.5 41.1 41.1C40.5 41.7 39.8 42 39 42H9ZM11.15 39H36.8C34.7333 37.2333 32.6417 35.9417 30.525 35.125C28.4083 34.3083 26.2333 33.9 24 33.9C21.7667 33.9 19.5917 34.3083 17.475 35.125C15.3583 35.9417 13.25 37.2333 11.15 39ZM21.35 22.8C20.5833 22.0333 20.2 21.1167 20.2 20.05C20.2 18.9833 20.5833 18.0667 21.35 17.3C22.1167 16.5333 23.0333 16.15 24.1 16.15C25.1667 16.15 26.0833 16.5333 26.85 17.3C27.6167 18.0667 28 18.9833 28 20.05C28 21.1167 27.6167 22.0333 26.85 22.8C26.0833 23.5667 25.1667 23.95 24.1 23.95C23.0333 23.95 22.1167 23.5667 21.35 22.8Z" fill="black"/>
</svg>
